<?xml version="1.0" encoding="UTF-8"?>
<svg id="Layer_2" data-name="Layer 2" xmlns="http://www.w3.org/2000/svg" viewBox="0 0 160.46 58.14">
  <defs>
    <style>
      .cls-1, .cls-2 {
        fill: #e2a01b;
      }

      .cls-3 {
        fill: #675c55;
      }

      .cls-4 {
        fill: #d3b4a2;
      }

      .cls-2 {
        font-family: MonotypeCorsiva, 'Monotype Corsiva';
        font-size: 13px;
      }
    </style>
  </defs>
  <g id="Layer_1-2" data-name="Layer 1">
    <g>
      <g>
        <path class="cls-1" d="M14.76,14.94c-2.6,0-4.71,2.14-4.71,4.79s2.11,4.79,4.71,4.79,4.71-2.14,4.71-4.79-2.11-4.79-4.71-4.79Z"/>
        <path class="cls-3" d="M29.16,4.84c0,1-.4,1.93-1.08,2.69-1.06,1.2-2.82,1.98-4.8,1.98l-15.3-.17v25.21c0,3.39-1.33,5.09-3.99,5.11C1.33,39.69,0,37.99,0,34.56V5.11C0,1.7,1.33,0,3.99,0l19.29.17c1.98,0,3.74.78,4.8,1.98.68.76,1.08,1.69,1.08,2.69Z"/>
      </g>
      <g>
        <g>
          <g>
            <path class="cls-3" d="M140.29,30.41l.57.2.08-.12c-.21-.01-.43-.03-.65-.08ZM147.44,20.42c.22-.29.39-.57.52-.81l-.52.81Z"/>
            <path class="cls-3" d="M156.11,4.68c0,1.49-.17,2.33-.52,3.09-.27.59-.65,1.13-1.14,1.87-.91,1.79-2.22,3.55-3.49,5.31l-3,4.66-.52.81-6.49,10.07c-.21,0-.43-.03-.65-.08l.57.2.08-.12c1.1.06,2.08-.21,2.9.67,2.14,2.33,1.68,5.3-.04,7.74-.21.31-.52.59-.94.75-.07.02-.14.05-.23.07-1.49.34-11.06.04-11.06.04-2.17,0-3.26-1.58-3.26-4.75,0-2.66.57-4.83,1.72-6.51l14.45-19.24-13.35-.3c-1.88,0-2.82-1.55-2.82-4.64s.39-4.03,2.24-4.03h22.27c2.17,0,3.29,1.26,3.29,4.39Z"/>
            <path class="cls-3" d="M140.95,30.49l-.08.12-.57-.2c.22.05.44.07.65.08Z"/>
          </g>
          <path class="cls-1" d="M152.32,30.39c-2.85,0-5.15,2.14-5.15,4.77s2.31,4.77,5.15,4.77,5.15-2.14,5.15-4.77-2.31-4.77-5.15-4.77Z"/>
        </g>
        <g>
          <path class="cls-3" d="M117.97,22.96c-.08-.12-.04-.26.11-.36,3.22-2.24,4.84-5.84,4.84-10.82,0-2.85-.92-5.52-2.76-8.01-1.84-2.49-4.15-3.73-6.94-3.73h-11.26c-3.32,0-4.98,1.7-4.98,5.09v2.87h10.21v.05c.09-.03.19-.05.3-.05h2.31c2.81,0,4.22,1.5,4.22,4.51s-1.41,4.51-4.22,4.51h-2.31c-.11,0-.21-.02-.3-.05v.05h-10.21v17.45c0,3.4,1.66,5.09,4.98,5.09s4.98-1.7,4.98-5.09v-8.21c0-.38.83-.48,1.07-.14.7,1.02,1.09,1.72,2.47,2.63.43.28.94.49,1.56.59,2.07.31,4.38-.09,5.9-1.02,1.23-.75,1.97-1.88,1.87-2.96-.1-1.11-1.15-1.36-1.83-2.39Z"/>
          <path class="cls-1" d="M120.27,29.99c-2.85,0-5.15,2.14-5.15,4.77s2.31,4.77,5.15,4.77,5.15-2.14,5.15-4.77-2.31-4.77-5.15-4.77Z"/>
        </g>
        <g>
          <path class="cls-1" d="M34.68,7.33c-2.85,0-5.15,2.14-5.15,4.77s2.31,4.77,5.15,4.77,5.15-2.14,5.15-4.77-2.31-4.77-5.15-4.77Z"/>
          <path class="cls-3" d="M59,12.42c0,2.77-.66,5.14-1.97,7.12h0s-8.97,17.55-8.97,17.55c-1.1,2.15-2.72,2.91-4.86,2.29-2.14-.62-2.66-2.01-1.57-4.16l5.33-10.42c-.13,0-.25,0-.38,0-3.61,0-6.09-.54-7.42-1.61-1.34-1.07-2.01-2.04-2.01-2.89s.28-1.62.84-2.28c.56-.67,1.17-1,1.84-1s1.72.26,3.17.78c1.45.52,2.53.78,3.25.78,3.9,0,5.86-2.06,5.86-6.17s-1.95-6.17-5.86-6.17c-.72,0-1.8.26-3.25.78-1.45.52-2.5.78-3.17.78s-1.28-.33-1.84-1c-.56-.67-.84-1.43-.84-2.28s.65-1.82,1.94-2.89C40.39.54,42.87,0,46.53,0s6.66,1.15,8.98,3.44c2.32,2.29,3.48,5.29,3.48,8.98Z"/>
        </g>
        <g>
          <path class="cls-4" d="M89.03,0c-2.84,0-5.15,2.14-5.15,4.77s2.31,4.77,5.15,4.77,5.15-2.14,5.15-4.77-2.31-4.77-5.15-4.77Z"/>
          <path class="cls-3" d="M92.03,34.9c0,3.1-1.25,4.65-3.73,4.65h-17.97c-3.2,0-4.8-1.7-4.8-5.09V5.13c0-3.4,1.6-5.09,4.8-5.09h3.8c.54,0,1.09,0,1.63,0,.08,0,.16,0,.24,0h.01c.06,0,.12,0,.17,0,.09,0,.19,0,.28,0h0c3.16.13,5.68,2.15,5.68,4.63s-2.68,4.63-5.99,4.63c-.32,0-.63-.02-.94-.06-.05.06-.09.1-.09.1v5.68h12.2c2.49,0,3.73,1.56,3.73,4.68s-1.24,4.68-3.73,4.68h-12.2v5.85h13.17c2.49,0,3.73,1.55,3.73,4.65Z"/>
        </g>
      </g>
    </g>
    <text class="cls-2" transform="translate(0 54.15) scale(.86 1)"><tspan x="0" y="0">One Stop Shop To The World Of Luxury</tspan></text>
  </g>
</svg>